<svg width="50" height="50" viewBox="0 0 50 50" fill="none" xmlns="http://www.w3.org/2000/svg">
<path d="M25 50C38.8071 50 50 38.8071 50 25C50 11.1929 38.8071 0 25 0C11.1929 0 0 11.1929 0 25C0 38.8071 11.1929 50 25 50Z" fill="#FFCC4D"/>
<path d="M14.6041 32.8066C14.6666 33.0552 16.2263 38.8885 24.9999 38.8885C33.7749 38.8885 35.3333 33.0552 35.3958 32.8066C35.4722 32.5052 35.336 32.1927 35.0666 32.0371C34.7958 31.883 34.4569 31.9288 34.2333 32.1441C34.2069 32.1705 31.5194 34.7219 24.9999 34.7219C18.4805 34.7219 15.7916 32.1705 15.7666 32.1455C15.6332 32.0135 15.4555 31.9441 15.2777 31.9441C15.161 31.9441 15.043 31.9733 14.936 32.033C14.6638 32.1885 14.5277 32.5038 14.6041 32.8066Z" fill="#664500"/>
<path d="M16.667 23.6109C18.5847 23.6109 20.1392 21.4345 20.1392 18.7498C20.1392 16.0651 18.5847 13.8887 16.667 13.8887C14.7494 13.8887 13.1948 16.0651 13.1948 18.7498C13.1948 21.4345 14.7494 23.6109 16.667 23.6109Z" fill="#664500"/>
<path d="M33.3336 23.6109C35.2512 23.6109 36.8058 21.4345 36.8058 18.7498C36.8058 16.0651 35.2512 13.8887 33.3336 13.8887C31.4159 13.8887 29.8613 16.0651 29.8613 18.7498C29.8613 21.4345 31.4159 23.6109 33.3336 23.6109Z" fill="#664500"/>
</svg>
